<?xml version="1.0" standalone="no"?>
<!DOCTYPE svg PUBLIC "-//W3C//DTD SVG 20010904//EN"
 "http://www.w3.org/TR/2001/REC-SVG-20010904/DTD/svg10.dtd">
<svg version="1.0" xmlns="http://www.w3.org/2000/svg"
 width="300.000000pt" height="300.000000pt" viewBox="0 0 300.000000 300.000000"
 preserveAspectRatio="xMidYMid meet">
<metadata>
Created by potrace 1.11, written by Peter Selinger 2001-2013
</metadata>
<g transform="translate(0.000000,300.000000) scale(0.100000,-0.100000)"
fill="#000000" stroke="none">
<path d="M300 2699 c0 -46 -2 -50 -22 -49 -13 1 -35 2 -51 1 l-27 -1 2 -1097
3 -1098 35 -2 c19 -1 41 -2 48 -2 8 -1 12 -18 12 -50 l0 -49 46 0 c25 0 48 -2
50 -5 3 -3 5 -23 6 -46 l0 -41 387 0 c1399 -1 1895 0 1899 5 3 2 5 25 5 50 0
41 2 46 21 44 12 0 33 -1 49 0 l27 1 0 845 0 845 -45 0 c-48 0 -47 -3 -47 73
-1 26 -3 27 -48 27 -53 0 -57 5 -55 63 l1 37 -248 0 -248 0 0 50 0 50 -50 0
-50 0 0 50 0 50 -47 0 c-27 1 -95 2 -153 3 l-105 2 -1 85 c-1 47 -2 91 -3 98
-1 7 -17 12 -46 12 l-45 0 0 50 0 50 -650 0 -650 0 0 -51z"/>
</g>
</svg>
